P3
20 20
255
170 90 200 
168 98 201 
166 106 202 
164 114 203 
162 122 204 
160 130 205 
158 138 206 
156 146 207 
154 154 208 
152 162 209 
150 170 210 
148 178 211 
146 186 212 
144 194 213 
142 202 214 
140 210 215 
138 218 216 
136 226 217 
134 234 218 
132 242 219 
170 90 200 
168 98 201 
166 106 202 
164 114 203 
162 122 204 
160 130 205 
158 138 206 
156 146 207 
154 154 208 
152 162 209 
150 170 210 
148 178 211 
146 186 212 
144 194 213 
142 202 214 
140 210 215 
138 218 216 
136 226 217 
134 234 218 
132 242 219 
170 90 200 
168 98 201 
166 106 202 
164 114 203 
162 122 204 
160 130 205 
158 138 206 
156 146 207 
154 154 208 
152 162 209 
150 170 210 
148 178 211 
146 186 212 
144 194 213 
142 202 214 
140 210 215 
138 218 216 
136 226 217 
134 234 218 
132 242 219 
170 90 200 
168 98 201 
166 106 202 
164 114 203 
162 122 204 
160 130 205 
158 138 206 
156 146 207 
154 154 208 
152 162 209 
150 170 210 
148 178 211 
146 186 212 
144 194 213 
142 202 214 
140 210 215 
138 218 216 
136 226 217 
134 234 218 
132 242 219 
170 90 200 
168 98 201 
166 106 202 
164 114 203 
162 122 204 
160 130 205 
158 138 206 
156 146 207 
154 154 208 
152 162 209 
150 170 210 
148 178 211 
146 186 212 
144 194 213 
142 202 214 
140 210 215 
138 218 216 
136 226 217 
134 234 218 
132 242 219 
170 90 200 
168 98 201 
166 106 202 
164 114 203 
162 122 204 
160 130 205 
158 138 206 
156 146 207 
154 154 208 
152 162 209 
150 170 210 
148 178 211 
146 186 212 
144 194 213 
142 202 214 
140 210 215 
138 218 216 
136 226 217 
134 234 218 
132 242 219 
170 90 200 
168 98 201 
166 106 202 
164 114 203 
162 122 204 
160 130 205 
158 138 206 
156 146 207 
154 154 208 
152 162 209 
150 170 210 
148 178 211 
146 186 212 
144 194 213 
142 202 214 
140 210 215 
138 218 216 
136 226 217 
134 234 218 
132 242 219 
170 90 200 
168 98 201 
166 106 202 
164 114 203 
162 122 204 
160 130 205 
158 138 206 
156 146 207 
154 154 208 
152 162 209 
150 170 210 
148 178 211 
146 186 212 
144 194 213 
142 202 214 
140 210 215 
138 218 216 
136 226 217 
134 234 218 
132 242 219 
170 90 200 
168 98 201 
166 106 202 
164 114 203 
162 122 204 
160 130 205 
158 138 206 
156 146 207 
154 154 208 
152 162 209 
150 170 210 
148 178 211 
146 186 212 
144 194 213 
142 202 214 
140 210 215 
138 218 216 
136 226 217 
134 234 218 
132 242 219 
170 90 200 
168 98 201 
166 106 202 
164 114 203 
162 122 204 
160 130 205 
158 138 206 
156 146 207 
154 154 208 
152 162 209 
150 170 210 
148 178 211 
146 186 212 
144 194 213 
142 202 214 
140 210 215 
138 218 216 
136 226 217 
134 234 218 
132 242 219 
170 90 200 
168 98 201 
166 106 202 
164 114 203 
162 122 204 
160 130 205 
158 138 206 
156 146 207 
154 154 208 
152 162 209 
150 170 210 
148 178 211 
146 186 212 
144 194 213 
142 202 214 
140 210 215 
138 218 216 
136 226 217 
134 234 218 
132 242 219 
170 90 200 
168 98 201 
166 106 202 
164 114 203 
162 122 204 
160 130 205 
158 138 206 
156 146 207 
154 154 208 
152 162 209 
150 170 210 
148 178 211 
146 186 212 
144 194 213 
142 202 214 
140 210 215 
138 218 216 
136 226 217 
134 234 218 
132 242 219 
170 90 200 
168 98 201 
166 106 202 
164 114 203 
162 122 204 
160 130 205 
158 138 206 
156 146 207 
154 154 208 
152 162 209 
150 170 210 
148 178 211 
146 186 212 
144 194 213 
142 202 214 
140 210 215 
138 218 216 
136 226 217 
134 234 218 
132 242 219 
170 90 200 
168 98 201 
166 106 202 
164 114 203 
162 122 204 
160 130 205 
158 138 206 
156 146 207 
154 154 208 
152 162 209 
150 170 210 
148 178 211 
146 186 212 
144 194 213 
142 202 214 
140 210 215 
138 218 216 
136 226 217 
134 234 218 
132 242 219 
170 90 200 
168 98 201 
166 106 202 
164 114 203 
162 122 204 
160 130 205 
158 138 206 
156 146 207 
154 154 208 
152 162 209 
150 170 210 
148 178 211 
146 186 212 
144 194 213 
142 202 214 
140 210 215 
138 218 216 
136 226 217 
134 234 218 
132 242 219 
170 90 200 
168 98 201 
166 106 202 
164 114 203 
162 122 204 
160 130 205 
158 138 206 
156 146 207 
154 154 208 
152 162 209 
150 170 210 
148 178 211 
146 186 212 
144 194 213 
142 202 214 
140 210 215 
138 218 216 
136 226 217 
134 234 218 
132 242 219 
170 90 200 
168 98 201 
166 106 202 
164 114 203 
162 122 204 
160 130 205 
158 138 206 
156 146 207 
154 154 208 
152 162 209 
150 170 210 
148 178 211 
146 186 212 
144 194 213 
142 202 214 
140 210 215 
138 218 216 
136 226 217 
134 234 218 
132 242 219 
170 90 200 
168 98 201 
166 106 202 
164 114 203 
162 122 204 
160 130 205 
158 138 206 
156 146 207 
154 154 208 
152 162 209 
150 170 210 
148 178 211 
146 186 212 
144 194 213 
142 202 214 
140 210 215 
138 218 216 
136 226 217 
134 234 218 
132 242 219 
170 90 200 
168 98 201 
166 106 202 
164 114 203 
162 122 204 
160 130 205 
158 138 206 
156 146 207 
154 154 208 
152 162 209 
150 170 210 
148 178 211 
146 186 212 
144 194 213 
142 202 214 
140 210 215 
138 218 216 
136 226 217 
134 234 218 
132 242 219 
170 90 200 
168 98 201 
166 106 202 
164 114 203 
162 122 204 
160 130 205 
158 138 206 
156 146 207 
154 154 208 
152 162 209 
150 170 210 
148 178 211 
146 186 212 
144 194 213 
142 202 214 
140 210 215 
138 218 216 
136 226 217 
134 234 218 
132 242 219 
